<?xml version="1.0" encoding="UTF-8"?>
<svg version="1.1" xmlns="http://www.w3.org/2000/svg" width="96" height="96">
<path d="M0 0 C0.87624023 0.00757324 1.75248047 0.01514648 2.65527344 0.02294922 C12.82792768 0.2813203 21.82644909 3.0394234 29.125 10.4375 C33.74821954 16.26370014 34.70486246 22.10247421 35.6015625 29.34375 C36.4796661 34.53373547 38.60200736 38.59940543 41.9375 42.625 C43.125 44.4375 43.125 44.4375 43 46.875 C42.125 49.4375 42.125 49.4375 40.59375 51.6328125 C38.72773714 55.19610301 38.79032032 57.87119223 38.75 61.875 C38.4828589 69.97925863 38.4828589 69.97925863 35.6875 73.3125 C32.11451451 76.27546358 30.06699042 76.62826822 25.5 77 C24.49710938 77.08378906 23.49421875 77.16757813 22.4609375 77.25390625 C21.69007812 77.31449219 20.91921875 77.37507813 20.125 77.4375 C19.465 79.7475 18.805 82.0575 18.125 84.4375 C4.925 84.4375 -8.275 84.4375 -21.875 84.4375 C-22.865 79.4875 -23.855 74.5375 -24.875 69.4375 C-26.77038915 65.52036242 -28.5802069 62.07276118 -30.875 58.4375 C-31.98175055 56.60572536 -33.08600616 54.77244045 -34.1875 52.9375 C-34.67863281 52.1434375 -35.16976562 51.349375 -35.67578125 50.53125 C-39.83742392 43.26532013 -38.98186759 31.72259321 -36.93359375 23.79296875 C-33.17625126 14.42905879 -27.89248221 8.14399291 -18.875 3.4375 C-12.5657345 0.76964953 -6.81922852 -0.08290455 0 0 Z M-1.875 24.4375 C-2.38223149 28.29075057 -2.87948199 32.14522703 -3.375 36 C-3.51808594 37.08603516 -3.66117188 38.17207031 -3.80859375 39.29101562 C-4.50131236 44.71731138 -5.06338153 49.96658631 -4.875 55.4375 C-2.565 55.7675 -0.255 56.0975 2.125 56.4375 C2.63223149 52.58424943 3.12948199 48.72977297 3.625 44.875 C3.83962891 43.24594727 3.83962891 43.24594727 4.05859375 41.58398438 C4.75131236 36.15768862 5.31338153 30.90841369 5.125 25.4375 C2.815 25.1075 0.505 24.7775 -1.875 24.4375 Z M-16.875 29.4375 C-20.81119337 35.66608738 -20.81119337 35.66608738 -21.375 42.6875 C-20.6325 44.04875 -20.6325 44.04875 -19.875 45.4375 C-19.33875 46.55125 -18.8025 47.665 -18.25 48.8125 C-17.79625 49.67875 -17.3425 50.545 -16.875 51.4375 C-14.85454558 50.83566251 -12.85388961 50.16443904 -10.875 49.4375 C-10.545 48.7775 -10.215 48.1175 -9.875 47.4375 C-10.390625 46.53 -10.90625 45.6225 -11.4375 44.6875 C-12.875 41.4375 -12.875 41.4375 -12.125 38.25 C-11.50625 36.8578125 -11.50625 36.8578125 -10.875 35.4375 C-10.545 34.4475 -10.215 33.4575 -9.875 32.4375 C-13.12897508 30.17864676 -13.12897508 30.17864676 -16.875 29.4375 Z M10.125 32.4375 C10.37636719 33.00597656 10.62773438 33.57445312 10.88671875 34.16015625 C13.35232655 40.39179789 13.35232655 40.39179789 12.65625 43.59375 C11.8125 45.5 11.8125 45.5 10.125 48.4375 C13.37897508 50.69635324 13.37897508 50.69635324 17.125 51.4375 C21.06119337 45.20891262 21.06119337 45.20891262 21.625 38.1875 C20.8825 36.82625 20.8825 36.82625 20.125 35.4375 C19.58875 34.32375 19.0525 33.21 18.5 32.0625 C18.04625 31.19625 17.5925 30.33 17.125 29.4375 C14.22991489 29.4375 12.52803527 30.91979352 10.125 32.4375 Z " fill="#000000" transform="translate(45.875,3.5625)"/>
</svg>
